<?xml version="1.0" encoding="UTF-8"?>
<!DOCTYPE svg PUBLIC "-//W3C//DTD SVG 1.1//EN" "http://www.w3.org/Graphics/SVG/1.1/DTD/svg11.dtd">
<!-- Creator: CorelDRAW X7 -->
<svg xmlns="http://www.w3.org/2000/svg" xml:space="preserve" width="16.9333mm" height="16.9333mm" version="1.1" style="shape-rendering:geometricPrecision; text-rendering:geometricPrecision; image-rendering:optimizeQuality; fill-rule:evenodd; clip-rule:evenodd"
viewBox="0 0 394 394"
 xmlns:xlink="http://www.w3.org/1999/xlink">
 <defs>
  <style type="text/css">
   <![CDATA[
    .fil1 {fill:none}
    .fil0 {fill:#FEFEFE}
   ]]>
  </style>
 </defs>
 <g id="Layer_x0020_1">
  <metadata id="CorelCorpID_0Corel-Layer"/>
  <path class="fil0" d="M333 373c1,-2 1,-2 3,-4l5 0c-1,4 -3,4 -8,4zm-22 -67c12,-4 15,13 4,16 -9,2 -15,-13 -4,-16zm-10 10c2,18 29,13 26,-5 -2,-16 -29,-14 -26,5zm-174 -113c-10,24 -20,48 -30,72 5,4 28,12 35,15 10,4 24,11 34,14l18 -42c-7,-15 -49,-45 -57,-59zm39 32c3,3 5,7 10,8 11,-11 23,-23 35,-35l0 0 0 0 -3 -8c-4,-10 -9,-22 -13,-33 -2,-3 -11,-29 -14,-32 -3,4 -55,55 -56,56l0 4c1,0 1,1 1,1 13,11 28,27 40,39zm49 -19c-8,3 -33,29 -34,33l48 48c5,-2 9,-8 13,-11 -1,-8 -10,-29 -14,-37l-13 -33zm51 18c0,-17 0,-35 0,-53l0 0 0 -8 85 0c0,18 -1,37 0,55 0,5 0,5 2,7 3,-4 1,-55 1,-62l7 0 1 70 -96 0 0 -9zm-7 -65l0 12c-21,4 -27,9 -46,14l-27 -67 73 -30 0 71zm-149 58c4,-9 8,-19 12,-29 0,0 -1,0 -2,0 -1,0 -43,-16 -45,-20 6,1 23,8 31,11 4,2 8,5 10,4 -24,-23 -15,-20 -45,-32 -14,-6 -16,3 -21,14 -4,9 -7,17 -11,26 -14,33 -21,41 -2,49 9,4 17,8 27,12 7,3 19,9 27,11l19 -46zm199 149c3,-3 13,-7 17,-7 -2,4 -10,12 -17,7zm-23 -7l19 0c-7,3 -16,8 -19,0zm-37 -14l0 -9 10 4c0,1 0,1 0,1 0,1 0,1 0,1 0,0 0,1 0,1l1 3c1,3 1,4 2,6l-13 0 0 -7zm-68 -37l61 26 0 18 -4 0 -12 0 -45 0 0 -44zm-82 6l0 -40 38 16c12,5 25,11 37,15l0 47c-15,1 -55,0 -75,0l0 -38zm167 -74l96 -1c-1,27 0,54 -1,80 0,38 6,33 -47,33 -9,0 -32,1 -40,0 -12,-3 -8,-21 -8,-32 0,-27 0,-54 0,-80zm102 93l0 -22c4,7 8,18 0,22zm-133 -10l6 -14c4,2 8,7 11,10 5,5 8,5 7,14 -4,-1 -8,-3 -12,-5 -4,-1 -10,-3 -12,-5zm133 -32c4,4 9,8 10,12 0,5 -2,6 -3,6 -2,-3 -6,-14 -7,-18zm-122 -9c2,7 13,28 13,34 -5,-2 -19,-18 -24,-23 2,-3 7,-10 11,-11zm122 -6c3,2 5,4 4,8l-4 -3 0 -5zm-337 -6c3,2 53,1 61,1l0 81c-20,0 -41,1 -61,0 -12,0 -14,-4 -14,-16l0 -61c0,-11 0,-17 12,-18 25,-2 26,-2 42,5l9 4c1,0 1,1 2,1 -9,1 -47,0 -51,3zm214 -7c3,-2 10,-5 14,-6l0 39 -14 -33zm-204 -13c-37,3 -31,-1 -31,70 0,44 -1,39 63,39 68,0 137,0 205,0 3,8 8,13 19,10 6,-1 6,1 10,3 5,3 10,3 14,1 8,-4 2,-4 12,-3 7,1 11,-3 14,-8 3,-4 0,-2 5,-3 5,-1 9,-2 12,-5 3,-3 2,-7 4,-11 1,-4 6,-6 8,-8 3,-3 4,-7 3,-12 -1,-9 0,-5 3,-12 7,-12 -5,-16 -4,-22 2,-12 -1,-16 -10,-20 -1,-33 0,-68 0,-101 0,-17 1,-140 0,-151 -2,-19 -16,-17 -34,-17 -72,0 -71,-6 -75,26 -5,-12 -11,-21 -27,-15l-67 28c-14,6 -13,19 -5,32l-1 1c0,0 0,0 0,0l-13 -11c-7,-4 -14,-1 -19,3 -8,6 -45,44 -51,51 -15,17 -4,22 3,32 -29,-11 -28,0 -46,43 -4,8 -13,27 -14,35 -2,10 2,14 7,17 2,2 13,7 15,8zm79 -73c-5,-3 -33,-32 -39,-38 -10,-10 -5,-14 2,-23 6,-6 12,-12 19,-19 6,-6 12,-12 19,-18 4,-4 13,-18 23,-12l19 19c5,5 10,17 12,25 -2,-2 -6,-5 -8,-7 -3,-3 -4,-4 -7,-7 -3,-3 -10,-10 -15,-12 2,6 12,13 16,17 5,4 13,12 16,17 -1,4 -38,39 -43,44 -4,4 -9,11 -14,14zm64 -65c-3,-4 -8,-19 -10,-24 -17,-42 -24,-38 20,-55 56,-22 50,-25 62,5 4,9 4,18 3,30 -3,-7 -10,-31 -15,-33 0,6 13,33 15,46l-75 31zm82 -94c1,-12 7,-11 19,-11l59 0c12,0 17,0 17,12 2,18 0,39 1,58l-7 0c0,-9 0,-18 0,-28 0,-7 2,-20 -2,-25 -1,1 0,-1 -1,2 0,1 0,3 0,3 0,2 0,5 0,7 0,4 0,9 0,13 0,10 -1,19 -1,28 -74,0 -93,20 -85,-59z"/>
  <rect class="fil1" width="394" height="394"/>
 </g>
</svg>
