<?xml version="1.0" encoding="UTF-8"?>
<!DOCTYPE svg PUBLIC "-//W3C//DTD SVG 1.1//EN" "http://www.w3.org/Graphics/SVG/1.1/DTD/svg11.dtd">
<!-- Creator: CorelDRAW X7 -->
<svg xmlns="http://www.w3.org/2000/svg" xml:space="preserve" width="5.4187mm" height="5.4187mm" version="1.1" style="shape-rendering:geometricPrecision; text-rendering:geometricPrecision; image-rendering:optimizeQuality; fill-rule:evenodd; clip-rule:evenodd"
viewBox="0 0 20 20"
 xmlns:xlink="http://www.w3.org/1999/xlink">
 <defs>
  <style type="text/css">
   <![CDATA[
    .fil0 {fill:none}
    .fil4 {fill:url(#id5)}
    .fil1 {fill:url(#id6)}
    .fil3 {fill:url(#id7)}
    .fil5 {fill:url(#id8)}
    .fil2 {fill:url(#id9)}
   ]]>
  </style>
    <clipPath id="id0">
     <path d="M9 5c0,0 1,-1 3,-1 2,0 4,0 5,1l0 -4c-2,0 -4,0 -6,0 -1,0 -2,0 -2,0l0 4z"/>
    </clipPath>
    <clipPath id="id1">
     <path d="M12 16c-2,0 -3,0 -3,-1l0 5c0,0 1,0 2,0 2,0 4,0 6,-1l0 -3c-1,0 -3,0 -5,0z"/>
    </clipPath>
    <clipPath id="id2">
     <path d="M7 19l0 -5 -4 0c0,0 0,1 1,2 0,1 0,1 1,2 1,1 1,1 2,1z"/>
    </clipPath>
    <clipPath id="id3">
     <path d="M3 12l4 0 0 0 0 -4 0 0 -4 0 0 4z"/>
    </clipPath>
    <clipPath id="id4">
     <path d="M3 7l4 0 0 -6c-1,0 -1,1 -2,1 -1,1 -1,2 -1,2 -1,1 -1,2 -1,3z"/>
    </clipPath>
  <linearGradient id="id5" gradientUnits="objectBoundingBox" x1="50%" y1="84.0004%" x2="50%" y2="15.9996%">
   <stop offset="0" style="stop-opacity:1; stop-color:#00A0E3"/>
   <stop offset="1" style="stop-opacity:1; stop-color:#A2D9F7"/>
  </linearGradient>
  <linearGradient id="id6" gradientUnits="objectBoundingBox" x1="50.0005%" y1="19.001%" x2="50.0005%" y2="81.0008%">
   <stop offset="0" style="stop-opacity:1; stop-color:#FAE924"/>
   <stop offset="1" style="stop-opacity:1; stop-color:#FBBE07"/>
  </linearGradient>
  <linearGradient id="id7" gradientUnits="objectBoundingBox" x1="50.0005%" y1="83.0004%" x2="50.0005%" y2="16.9996%">
   <stop offset="0" style="stop-opacity:1; stop-color:#009846"/>
   <stop offset="1" style="stop-opacity:1; stop-color:#B0CB1F"/>
  </linearGradient>
  <linearGradient id="id8" gradientUnits="objectBoundingBox" x1="50%" y1="34%" x2="50%" y2="66.0018%">
   <stop offset="0" style="stop-opacity:1; stop-color:#D64B45"/>
   <stop offset="1" style="stop-opacity:1; stop-color:#CE2355"/>
  </linearGradient>
  <linearGradient id="id9" gradientUnits="objectBoundingBox" x1="50%" y1="32.0002%" x2="50%" y2="68.0012%">
   <stop offset="0" style="stop-opacity:1; stop-color:#EF7F1A"/>
   <stop offset="1" style="stop-opacity:1; stop-color:#E42D24"/>
  </linearGradient>
 </defs>
 <g id="Layer_x0020_1">
  <metadata id="CorelCorpID_0Corel-Layer"/>
  <rect class="fil0" width="20.4139" height="20.4139"/>
  <g id="_2072344076192">
   <g>
   </g>
   <g style="clip-path:url(#id0)">
    <g id="_2072344085984">
     <polygon class="fil1" points="39,0 39,20 2,20 2,0 "/>
     <polygon class="fil2" points="70,-7 70,20 39,20 39,-7 "/>
     <polygon class="fil3" points="176,-7 176,20 139,20 139,-7 "/>
     <polygon class="fil4" points="137,-4 137,20 105,20 105,-4 "/>
     <polygon class="fil5" points="105,0 105,20 71,20 71,0 "/>
    </g>
   </g>
   <path class="fil0" d="M9 5c0,0 1,-1 3,-1 2,0 4,0 5,1l0 -4c-2,0 -4,0 -6,0 -1,0 -2,0 -2,0l0 4z"/>
   <g>
   </g>
   <g style="clip-path:url(#id1)">
    <g>
     <polygon class="fil1" points="39,0 39,20 2,20 2,0 "/>
     <polygon class="fil2" points="70,-7 70,20 39,20 39,-7 "/>
     <polygon class="fil3" points="176,-7 176,20 139,20 139,-7 "/>
     <polygon class="fil4" points="137,-4 137,20 105,20 105,-4 "/>
     <polygon class="fil5" points="105,0 105,20 71,20 71,0 "/>
    </g>
   </g>
   <path class="fil0" d="M12 16c-2,0 -3,0 -3,-1l0 5c0,0 1,0 2,0 2,0 4,0 6,-1l0 -3c-1,0 -3,0 -5,0z"/>
   <g>
   </g>
   <g style="clip-path:url(#id2)">
    <g>
     <polygon class="fil1" points="39,0 39,20 2,20 2,0 "/>
     <polygon class="fil2" points="70,-7 70,20 39,20 39,-7 "/>
     <polygon class="fil3" points="176,-7 176,20 139,20 139,-7 "/>
     <polygon class="fil4" points="137,-4 137,20 105,20 105,-4 "/>
     <polygon class="fil5" points="105,0 105,20 71,20 71,0 "/>
    </g>
   </g>
   <path class="fil0" d="M7 19l0 -5 -4 0c0,0 0,1 1,2 0,1 0,1 1,2 1,1 1,1 2,1z"/>
   <g>
   </g>
   <g style="clip-path:url(#id3)">
    <g>
     <polygon class="fil1" points="39,0 39,20 2,20 2,0 "/>
     <polygon class="fil2" points="70,-7 70,20 39,20 39,-7 "/>
     <polygon class="fil3" points="176,-7 176,20 139,20 139,-7 "/>
     <polygon class="fil4" points="137,-4 137,20 105,20 105,-4 "/>
     <polygon class="fil5" points="105,0 105,20 71,20 71,0 "/>
    </g>
   </g>
   <polygon class="fil0" points="3,12 7,12 7,12 7,8 7,8 3,8 "/>
   <g>
   </g>
   <g style="clip-path:url(#id4)">
    <g>
     <polygon class="fil1" points="39,0 39,20 2,20 2,0 "/>
     <polygon class="fil2" points="70,-7 70,20 39,20 39,-7 "/>
     <polygon class="fil3" points="176,-7 176,20 139,20 139,-7 "/>
     <polygon class="fil4" points="137,-4 137,20 105,20 105,-4 "/>
     <polygon class="fil5" points="105,0 105,20 71,20 71,0 "/>
    </g>
   </g>
   <path class="fil0" d="M3 7l4 0 0 -6c-1,0 -1,1 -2,1 -1,1 -1,2 -1,2 -1,1 -1,2 -1,3z"/>
  </g>
 </g>
</svg>
